# xmcd
#
# Track frame offsets:
# 150
# 28850
# 49912
# 75632
# 93350
# 127075
# 144875
# 171425
# 201180
# 230150
# 258275
# 283775
#
# Disc length: 4519 seconds
#
#
# Revision: 3
# Processed by: cddbd v1.5.1PL0 Copyright (c) Steve Scherf et al.
# Submitted via: FreeRIP 2.91 
#
DISCID=af11a50c
DTITLE=Lenny Kravitz - Unplugged
DYEAR=1994
DGENRE=Rock
TTITLE0=Are you gonna go my way
TTITLE1=Believe
TTITLE2=Rosemary
TTITLE3=Just be a woman
TTITLE4=Sister
TTITLE5=Always on the run
TTITLE6=My precious love
TTITLE7=Let love rule
TTITLE8=My precious love
TTITLE9=Cold Turkey
TTITLE10=If six were nine
TTITLE11=Year
EXTD=
EXTT0=
EXTT1=
EXTT2=
EXTT3=
EXTT4=
EXTT5=
EXTT6=
EXTT7=
EXTT8=
EXTT9=
EXTT10=
EXTT11=
PLAYORDER=
